<svg xmlns="http://www.w3.org/2000/svg" viewBox="0 0 220 220" width="220" height="220">
  <!-- Large spray pattern: center density (core_strength=0.7) grows from scattered droplets toward a solid continuous core as the size increases -->
  <defs><filter id="wetBlur" x="-40%" y="-40%" width="180%" height="180%"><feGaussianBlur stdDeviation="3.96"/></filter></defs>
  <g fill="#DCEFF7" opacity="0.72" filter="url(#wetBlur)">
    <path d="M 136.6,90.7 Q 139.5,102.1 136.0,113.0 Q 132.5,123.9 122.3,128.8 Q 112.1,133.7 100.9,132.6 Q 89.6,131.4 76.8,124.5 Q 64.0,117.6 70.4,104.4 Q 76.7,91.3 81.5,79.1 Q 86.2,66.9 99.3,68.0 Q 112.4,69.0 123.0,74.2 Q 133.6,79.4 136.6,90.7 Z"/>
    <path d="M 144.0,90.5 Q 139.7,105.4 138.7,115.8 Q 137.6,126.2 127.8,130.4 Q 118.0,134.6 104.3,139.3 Q 90.5,144.0 81.3,132.1 Q 72.1,120.2 72.1,105.4 Q 72.2,90.6 81.6,79.0 Q 91.0,67.5 105.6,65.8 Q 120.1,64.0 134.2,69.8 Q 148.3,75.6 144.0,90.5 Z"/>
    <path d="M 147.5,104.8 Q 149.3,120.0 146.9,134.7 Q 144.6,149.3 130.7,155.1 Q 116.8,160.8 103.6,157.0 Q 90.4,153.2 82.6,142.9 Q 74.9,132.6 74.2,119.7 Q 73.5,106.8 82.6,97.9 Q 91.7,88.9 103.4,89.0 Q 115.0,89.0 130.4,89.3 Q 145.7,89.7 147.5,104.8 Z"/>
    <path d="M 152.1,98.6 Q 159.1,109.1 156.1,123.0 Q 153.1,136.9 139.2,137.9 Q 125.2,138.9 112.2,142.1 Q 99.1,145.3 92.3,133.5 Q 85.4,121.7 88.1,110.1 Q 90.7,98.5 97.5,90.1 Q 104.2,81.7 115.4,76.4 Q 126.7,71.2 135.9,79.6 Q 145.1,88.0 152.1,98.6 Z"/>
  </g>
  <g fill="#EAF6FC" opacity="0.22">
    <path d="M 136.6,90.7 Q 139.5,102.1 136.0,113.0 Q 132.5,123.9 122.3,128.8 Q 112.1,133.7 100.9,132.6 Q 89.6,131.4 76.8,124.5 Q 64.0,117.6 70.4,104.4 Q 76.7,91.3 81.5,79.1 Q 86.2,66.9 99.3,68.0 Q 112.4,69.0 123.0,74.2 Q 133.6,79.4 136.6,90.7 Z"/>
    <path d="M 144.0,90.5 Q 139.7,105.4 138.7,115.8 Q 137.6,126.2 127.8,130.4 Q 118.0,134.6 104.3,139.3 Q 90.5,144.0 81.3,132.1 Q 72.1,120.2 72.1,105.4 Q 72.2,90.6 81.6,79.0 Q 91.0,67.5 105.6,65.8 Q 120.1,64.0 134.2,69.8 Q 148.3,75.6 144.0,90.5 Z"/>
  </g>
  <g fill="#DCEFF7">
    <circle cx="89.1" cy="115.4" r="5.34" opacity="0.80"/>
    <circle cx="105.2" cy="110.3" r="4.43" opacity="0.83"/>
    <circle cx="109.5" cy="110.5" r="6.81" opacity="1.00"/>
    <circle cx="88.2" cy="128.1" r="8.42" opacity="0.75"/>
    <circle cx="131.5" cy="136.5" r="7.87" opacity="1.00"/>
    <circle cx="116.3" cy="119.9" r="8.05" opacity="1.00"/>
    <circle cx="111.2" cy="106.5" r="7.96" opacity="0.93"/>
    <circle cx="109.6" cy="108.0" r="8.64" opacity="1.00"/>
  </g>
  <g stroke="#DCEFF7" stroke-linecap="round" fill="none">
    <line x1="94.2" y1="148.7" x2="94.9" y2="163.4" stroke-width="4.27" opacity="0.75"/>
    <line x1="120.2" y1="150.1" x2="118.7" y2="173.9" stroke-width="3.54" opacity="0.61"/>
    <line x1="96.8" y1="149.4" x2="94.0" y2="162.4" stroke-width="3.24" opacity="0.77"/>
    <line x1="105.9" y1="150.9" x2="105.5" y2="171.5" stroke-width="2.74" opacity="0.67"/>
  </g>
  <g fill="#DCEFF7">
    <circle cx="148.5" cy="135.3" r="5.88" opacity="0.64"/>
    <circle cx="92.7" cy="161.7" r="4.04" opacity="0.59"/>
    <circle cx="52.0" cy="121.1" r="4.73" opacity="0.54"/>
    <circle cx="76.5" cy="166.8" r="4.92" opacity="0.82"/>
    <circle cx="34.7" cy="122.3" r="2.42" opacity="0.53"/>
    <circle cx="17.5" cy="109.2" r="3.18" opacity="0.62"/>
    <circle cx="74.5" cy="29.3" r="2.04" opacity="0.80"/>
    <circle cx="77.1" cy="152.1" r="2.92" opacity="0.67"/>
    <circle cx="82.4" cy="147.6" r="3.51" opacity="0.61"/>
    <circle cx="113.7" cy="38.1" r="1.60" opacity="0.93"/>
    <circle cx="133.8" cy="170.5" r="3.56" opacity="0.72"/>
    <circle cx="94.7" cy="170.7" r="2.19" opacity="1.00"/>
    <circle cx="175.9" cy="165.9" r="1.97" opacity="0.66"/>
    <circle cx="74.5" cy="140.0" r="2.46" opacity="0.77"/>
    <circle cx="25.9" cy="142.2" r="3.93" opacity="0.51"/>
    <circle cx="62.1" cy="99.3" r="5.01" opacity="0.74"/>
    <circle cx="163.7" cy="67.2" r="2.04" opacity="0.53"/>
    <circle cx="111.1" cy="199.5" r="1.73" opacity="0.74"/>
    <circle cx="69.9" cy="151.9" r="4.66" opacity="0.67"/>
    <circle cx="95.0" cy="35.4" r="4.38" opacity="0.78"/>
    <circle cx="165.2" cy="79.9" r="3.69" opacity="0.88"/>
    <circle cx="158.9" cy="32.6" r="1.60" opacity="0.56"/>
    <circle cx="26.3" cy="91.9" r="2.86" opacity="0.66"/>
    <circle cx="164.2" cy="96.8" r="2.14" opacity="0.58"/>
    <circle cx="188.5" cy="125.2" r="1.78" opacity="0.88"/>
    <circle cx="176.1" cy="36.3" r="3.11" opacity="0.69"/>
    <circle cx="47.3" cy="49.6" r="3.32" opacity="0.64"/>
    <circle cx="113.7" cy="61.7" r="3.12" opacity="1.00"/>
    <circle cx="56.5" cy="119.8" r="4.73" opacity="0.80"/>
    <circle cx="156.4" cy="111.1" r="2.97" opacity="0.75"/>
    <circle cx="159.4" cy="89.4" r="5.01" opacity="1.00"/>
    <circle cx="24.9" cy="159.5" r="3.02" opacity="0.72"/>
    <circle cx="105.4" cy="173.8" r="4.77" opacity="0.83"/>
    <circle cx="130.5" cy="165.8" r="3.45" opacity="0.66"/>
    <circle cx="68.3" cy="89.4" r="5.17" opacity="0.67"/>
    <circle cx="166.9" cy="152.9" r="2.57" opacity="0.99"/>
    <circle cx="42.7" cy="111.3" r="4.41" opacity="0.64"/>
    <circle cx="107.8" cy="35.1" r="2.86" opacity="1.00"/>
    <circle cx="198.2" cy="122.3" r="1.72" opacity="0.91"/>
    <circle cx="136.7" cy="148.6" r="3.91" opacity="1.00"/>
    <circle cx="107.0" cy="175.3" r="3.73" opacity="0.67"/>
    <circle cx="64.7" cy="101.3" r="3.73" opacity="0.99"/>
    <circle cx="81.9" cy="154.3" r="2.06" opacity="0.94"/>
    <circle cx="26.8" cy="151.0" r="3.18" opacity="0.54"/>
  </g>
  <g fill="#DCEFF7">
    <circle cx="193.9" cy="59.8" r="2.14" opacity="0.43"/>
    <circle cx="73.2" cy="30.1" r="1.91" opacity="0.37"/>
    <circle cx="107.3" cy="170.6" r="2.00" opacity="0.37"/>
    <circle cx="189.1" cy="139.3" r="1.82" opacity="0.34"/>
    <circle cx="124.9" cy="15.9" r="1.47" opacity="0.43"/>
    <circle cx="28.9" cy="110.4" r="1.52" opacity="0.46"/>
    <circle cx="17.2" cy="143.8" r="1.40" opacity="0.38"/>
    <circle cx="183.6" cy="65.0" r="1.46" opacity="0.21"/>
    <circle cx="37.0" cy="120.0" r="2.13" opacity="0.42"/>
    <circle cx="185.0" cy="103.5" r="1.51" opacity="0.35"/>
    <circle cx="109.9" cy="51.8" r="1.21" opacity="0.24"/>
    <circle cx="79.1" cy="171.0" r="2.37" opacity="0.26"/>
    <circle cx="172.3" cy="82.3" r="1.19" opacity="0.48"/>
    <circle cx="160.6" cy="141.7" r="1.08" opacity="0.21"/>
    <circle cx="61.3" cy="152.0" r="1.13" opacity="0.19"/>
    <circle cx="91.9" cy="56.2" r="1.24" opacity="0.35"/>
    <circle cx="173.3" cy="53.1" r="1.97" opacity="0.40"/>
    <circle cx="137.5" cy="20.0" r="1.12" opacity="0.21"/>
    <circle cx="53.0" cy="55.9" r="1.68" opacity="0.42"/>
    <circle cx="150.0" cy="187.6" r="1.54" opacity="0.32"/>
    <circle cx="112.2" cy="177.5" r="1.77" opacity="0.35"/>
    <circle cx="166.2" cy="72.7" r="1.98" opacity="0.22"/>
    <circle cx="74.2" cy="59.4" r="2.20" opacity="0.46"/>
    <circle cx="107.5" cy="202.0" r="1.22" opacity="0.27"/>
    <circle cx="169.8" cy="155.3" r="1.04" opacity="0.40"/>
    <circle cx="44.2" cy="76.2" r="1.97" opacity="0.26"/>
    <circle cx="75.0" cy="172.2" r="0.88" opacity="0.45"/>
    <circle cx="160.3" cy="141.1" r="2.11" opacity="0.43"/>
    <circle cx="39.9" cy="134.0" r="1.09" opacity="0.19"/>
    <circle cx="44.8" cy="101.6" r="1.11" opacity="0.45"/>
    <circle cx="180.8" cy="118.6" r="2.04" opacity="0.40"/>
    <circle cx="179.6" cy="165.4" r="1.75" opacity="0.37"/>
  </g>
</svg>